<svg xmlns="http://www.w3.org/2000/svg" width="194" height="136.722" viewBox="0 0 194 136.722"><defs><style>.cls-1{fill:#fff}.cls-1,.cls-4{stroke:#ffadac}.cls-1,.cls-10,.cls-4{stroke-width:3px}.cls-10,.cls-12,.cls-4,.cls-6{fill:none}.cls-10{stroke-linecap:round}.cls-10,.cls-6{stroke:#251d34}.cls-7{fill:#251d34}.cls-10{stroke-linejoin:round;opacity:.16}.cls-11{stroke:none}</style></defs><g id="emplty_illustration" data-name="emplty illustration" transform="translate(-595 -285.211)"><g id="Rectangle_1173" class="cls-1" data-name="Rectangle 1173"><path d="M634 336h94a4 4 0 0 1 4 4v67a12 12 0 0 1-12 12h-78a12 12 0 0 1-12-12v-67a4 4 0 0 1 4-4z" class="cls-11"/><path d="M634 337.5h94a2.5 2.5 0 0 1 2.5 2.5v67a10.5 10.5 0 0 1-10.5 10.5h-78a10.5 10.5 0 0 1-10.5-10.5v-67a2.5 2.5 0 0 1 2.5-2.5z" class="cls-12"/></g><path id="Line_315" d="M0 0h191" data-name="Line 315" style="stroke-linecap:round;fill:none;stroke-width:3px;stroke:#ffadac" transform="translate(596.5 419.5)"/><g id="Group_1111" data-name="Group 1111" transform="rotate(60 529.715 699.512)"><g id="Ellipse_245" class="cls-1" data-name="Ellipse 245" transform="translate(337 327)"><circle cx="10" cy="10" r="10" class="cls-11"/><circle cx="10" cy="10" r="8.5" class="cls-12"/></g><g id="Rectangle_1174" class="cls-1" data-name="Rectangle 1174" transform="rotate(-90 324.5 35)"><rect width="25" height="116" class="cls-11" rx="5"/><rect width="22" height="113" x="1.5" y="1.5" class="cls-12" rx="3.5"/></g><g id="Rectangle_1175" data-name="Rectangle 1175" style="fill:rgba(255,134,133,.27);stroke-width:3px;stroke:#ffadac"><path d="M321 335h53v24h-53z" class="cls-11"/><path d="M322.5 336.5h50v21h-50z" class="cls-12"/></g><path id="Path_3271" d="m5876.269-10367.271-12.92-7.18 8.955-15.24s-.939 18.225 5.937 18.068" class="cls-4" data-name="Path 3271" transform="translate(-5538 10702)"/><path id="Path_3272" d="m5869.19-10367.691 12.2-6.759-8.955-15.24s.831 18.1-6.045 17.943" class="cls-4" data-name="Path 3272" transform="translate(-5513 10702)"/></g><g id="Rectangle_1176" data-name="Rectangle 1176" style="fill:#ffdede;stroke-width:3px;stroke:#ffadac" transform="translate(663 336)"><rect width="39" height="83" class="cls-11" rx="1"/><rect width="36" height="80" x="1.5" y="1.5" class="cls-12" rx=".5"/></g><path id="Line_316" d="M0 0h9" class="cls-6" data-name="Line 316" transform="translate(687.5 364.5)"/><path id="Line_317" d="M0 0h9" class="cls-6" data-name="Line 317" transform="translate(668.5 364.5)"/><circle id="Ellipse_246" cx="2" cy="2" r="2" class="cls-7" data-name="Ellipse 246" transform="translate(669 364)"/><circle id="Ellipse_247" cx="2" cy="2" r="2" class="cls-7" data-name="Ellipse 247" transform="translate(688 364)"/><path id="Path_3273" d="M6214.924-10326.908s1.5-1.616 2.905-1.616 2.732 1.616 2.732 1.616" data-name="Path 3273" style="stroke:#251d34;stroke-linecap:round;fill:none" transform="translate(-5538 10700)"/><path id="Path_3274" d="M6214.859-10332a42.2 42.2 0 0 1-1.76 6.725c-.824 1.7-1.593 6.225 0 6.97s1.76-.2 1.76-.2z" data-name="Path 3274" style="fill:#fff" transform="translate(-5537.359 10699)"/><path id="Path_3275" d="M6201-10397.675s-3.815 4.514-1.691 6.9 5.576 1.327 5.045 3.982-3.354 4.779-3.354 4.779" class="cls-10" data-name="Path 3275" transform="translate(-5531 10707)"/><path id="Path_3276" d="M6201-10397.675s-3.815 4.514-1.691 6.9 5.576 1.327 5.045 3.982-3.354 4.779-3.354 4.779" class="cls-10" data-name="Path 3276" transform="translate(-5523 10685)"/><path id="Path_3277" d="M6201-10397.675s-3.815 4.514-1.691 6.9 5.576 1.327 5.045 3.982-3.354 4.779-3.354 4.779" class="cls-10" data-name="Path 3277" transform="translate(-5509 10699)"/></g></svg>